<?xml version="1.0" standalone="no"?>
<!DOCTYPE svg PUBLIC "-//W3C//DTD SVG 20010904//EN"
 "http://www.w3.org/TR/2001/REC-SVG-20010904/DTD/svg10.dtd">
<svg version="1.0" xmlns="http://www.w3.org/2000/svg"
 width="500.000000pt" height="500.000000pt" viewBox="0 0 500.000000 500.000000"
 preserveAspectRatio="xMidYMid meet">
<metadata>
Created by potrace 1.11, written by Peter Selinger 2001-2013
</metadata>
<g transform="translate(0.000000,500.000000) scale(0.100000,-0.100000)"
fill="#000000" stroke="none">
<path d="M4158 4885 c-1 -1 -39 -6 -83 -9 -72 -7 -111 -11 -240 -31 -22 -3
-56 -8 -75 -11 -19 -3 -42 -7 -50 -9 -8 -3 -33 -7 -55 -11 -22 -3 -71 -12
-110 -21 -38 -8 -81 -17 -95 -19 -62 -12 -387 -100 -500 -135 -581 -183 -1164
-472 -1640 -812 -610 -436 -1001 -944 -1140 -1482 -16 -61 -32 -137 -35 -170
-4 -33 -9 -69 -11 -80 -6 -27 -5 -250 1 -305 20 -182 81 -405 159 -574 20 -42
38 -89 40 -103 5 -22 -73 -242 -104 -295 -5 -10 -10 -23 -10 -29 0 -6 -7 -25
-15 -42 -7 -18 -33 -79 -56 -137 -145 -366 -155 -405 -122 -460 20 -35 52 -50
105 -50 33 0 46 6 72 33 17 19 37 49 43 68 6 19 58 156 115 304 58 149 118
306 133 349 48 132 85 155 285 181 170 21 483 97 672 163 191 67 481 196 603
269 94 56 245 151 276 173 20 14 58 40 85 59 48 34 229 178 288 230 69 60 320
310 316 314 -17 16 -430 25 -560 12 -25 -2 -81 -6 -125 -9 -44 -4 -91 -8 -105
-11 -57 -11 -157 -12 -189 -1 -55 18 -79 64 -72 138 2 27 58 75 96 82 37 7 60
10 160 21 315 34 661 37 830 7 22 -4 56 -7 75 -6 19 1 44 3 56 3 33 2 107 57
143 107 19 25 58 75 88 110 30 35 52 68 49 73 -9 14 -215 57 -316 66 -75 6
-239 15 -347 19 -116 4 -146 17 -168 70 -25 58 1 127 56 150 16 7 62 11 102
10 127 -3 331 -14 357 -18 14 -2 52 -7 85 -11 50 -6 306 -53 382 -70 18 -4 41
19 145 152 229 294 403 510 429 533 3 3 46 50 95 105 75 84 146 155 278 280
20 19 123 106 156 132 149 118 176 143 202 189 39 69 57 224 26 224 -23 0
-470 -174 -605 -236 -17 -8 -33 -14 -36 -14 -3 0 -74 -32 -159 -71 -607 -282
-1118 -581 -1619 -950 -162 -118 -382 -289 -399 -309 -3 -3 -18 -16 -35 -29
-95 -73 -390 -352 -530 -502 -93 -100 -224 -252 -288 -334 -117 -151 -178
-242 -372 -551 -164 -263 -187 -294 -233 -318 -49 -26 -80 -20 -118 20 -48 50
-45 84 13 197 246 481 670 1014 1179 1483 136 126 153 141 203 183 25 20 63
52 86 71 91 77 114 95 225 179 718 545 1393 919 2353 1307 l228 92 -29 21
c-56 39 -133 49 -395 49 -135 0 -247 -1 -249 -3z"/>
</g>
</svg>
